<?xml version="1.0" encoding="UTF-8" standalone="no"?> <svg xmlns="http://www.w3.org/2000/svg" viewBox="0 0 512 512"><g id="filled_outline" data-name="filled outline"><rect x="96" y="64" width="144" height="392" rx="16" ry="16" style="fill:#fdb62f"/><path d="M184,332.438V128a16,16,0,0,0-32,0V332.438a32,32,0,1,0,32,0Z" style="fill:#bb4033"/><path d="M184,332.438V184H152V332.438a32,32,0,1,0,32,0Z" style="fill:#f85542"/><path d="M224,456H112a16,16,0,0,1-16-16V424H240v16A16,16,0,0,1,224,456Z" style="fill:#ec9e15"/><rect x="96" y="176" width="32" height="16" style="fill:#dc9315"/><rect x="96" y="144" width="24" height="16" style="fill:#dc9315"/><rect x="96" y="208" width="24" height="16" style="fill:#dc9315"/><rect x="96" y="240" width="32" height="16" style="fill:#dc9315"/><rect x="96" y="272" width="24" height="16" style="fill:#dc9315"/><circle cx="296" cy="264" r="56" style="fill:#ff9201"/><path d="M391.862,330.739c.044-.913.138-1.814.138-2.739a56,56,0,0,0-107.7-21.533,31.9,31.9,0,0,0-43.351,22.107A47.971,47.971,0,0,0,248,424H376a47.975,47.975,0,0,0,15.862-93.261Z" style="fill:#f4f4f4"/><path d="M424,376a47.979,47.979,0,0,0-32.138-45.261c.044-.913.138-1.814.138-2.739a55.978,55.978,0,0,0-51.193-55.757,55.933,55.933,0,0,0-48.5,34.224,32.062,32.062,0,0,0-7.021-1.935c-.305.657-.7,1.264-.979,1.935a32.1,32.1,0,0,0-8.608-2.095,31.937,31.937,0,0,0-26.743,24.2A47.971,47.971,0,0,0,256,424H376A48,48,0,0,0,424,376Z" style="fill:#ebebeb"/><path d="M296,184a8,8,0,0,1-8-8V160a8,8,0,0,1,16,0v16A8,8,0,0,1,296,184Z" style="fill:#ff7400"/><path d="M233.773,209.773a7.977,7.977,0,0,1-5.656-2.343l-11.312-11.313a8,8,0,0,1,11.312-11.312l11.313,11.312a8,8,0,0,1-5.657,13.656Z" style="fill:#ff7400"/><path d="M208,272H192a8,8,0,0,1,0-16h16a8,8,0,0,1,0,16Z" style="fill:#ff7400"/><path d="M400,272H384a8,8,0,0,1,0-16h16a8,8,0,0,1,0,16Z" style="fill:#ff7400"/><path d="M358.227,209.773a8,8,0,0,1-5.657-13.656l11.313-11.312A8,8,0,0,1,375.2,196.117L363.883,207.43A7.977,7.977,0,0,1,358.227,209.773Z" style="fill:#ff7400"/><path d="M272,400H256a8,8,0,0,1,0-16h16a8,8,0,0,1,0,16Z" style="fill:#dbdbdb"/><path d="M368,400H304a8,8,0,0,1,0-16h64a8,8,0,0,1,0,16Z" style="fill:#dbdbdb"/><rect x="152" y="184" width="32" height="8" style="fill:#ff5944"/><path d="M88,80V440a24.027,24.027,0,0,0,24,24H224a24.027,24.027,0,0,0,24-24v-8H376a55.97,55.97,0,0,0,23.945-106.574,64.091,64.091,0,0,0-40.164-56.819c.115-1.529.219-3.062.219-4.607a63.914,63.914,0,0,0-112-42.19V80a24.027,24.027,0,0,0-24-24H112A24.027,24.027,0,0,0,88,80ZM232,440a8.008,8.008,0,0,1-8,8H112a8.008,8.008,0,0,1-8-8v-8H232ZM384,328c0,.43-.039.855-.062,1.277l-.071,1.051a8.006,8.006,0,0,0,5.344,7.961A39.974,39.974,0,0,1,376,416H248a39.971,39.971,0,0,1-5.875-79.512,7.99,7.99,0,0,0,6.609-6.058,23.878,23.878,0,0,1,14.179-16.569c.045-.02.087-.038.131-.059a23.514,23.514,0,0,1,18.175.05,8.007,8.007,0,0,0,10.469-4.3A48,48,0,0,1,384,328ZM176,176H160V128a8,8,0,0,1,16,0ZM156.023,339.352A8.005,8.005,0,0,0,160,332.438V192h16V332.438a8.005,8.005,0,0,0,3.977,6.914A23.73,23.73,0,0,1,192,360a24,24,0,0,1-48,0A23.73,23.73,0,0,1,156.023,339.352ZM296,216a48.052,48.052,0,0,1,48,48c0,.188-.05.363-.052.55A63.341,63.341,0,0,0,280.1,296.828a38.667,38.667,0,0,0-18.433.617A47.928,47.928,0,0,1,296,216ZM112,72H224a8.008,8.008,0,0,1,8,8V188.688l-3.883-3.883a8,8,0,0,0-11.312,11.312l11.312,11.313a7.772,7.772,0,0,0,3.883,2V322.571a56.088,56.088,0,0,0-28.336,19.509A40.385,40.385,0,0,0,192,328.164V272h16a8,8,0,0,0,0-16H192V128a24,24,0,0,0-48,0V328.164A39.891,39.891,0,0,0,168,400a39.637,39.637,0,0,0,25.9-9.774A55.98,55.98,0,0,0,208.884,416H104V288h16V272H104V256h24V240H104V224h16V208H104V192h24V176H104V160h16V144H104V80A8.008,8.008,0,0,1,112,72Z"/><path d="M288,160v16a8,8,0,0,0,16,0V160a8,8,0,0,0-16,0Z"/><path d="M384,272h16a8,8,0,0,0,0-16H384a8,8,0,0,0,0,16Z"/><path d="M363.883,184.805,352.57,196.117a8,8,0,1,0,11.313,11.313L375.2,196.117a8,8,0,0,0-11.312-11.312Z"/><path d="M272,384H256a8,8,0,0,0,0,16h16a8,8,0,0,0,0-16Z"/><path d="M296,392a8,8,0,0,0,8,8h64a8,8,0,0,0,0-16H304A8,8,0,0,0,296,392Z"/></g></svg>